%TF.GenerationSoftware,KiCad,Pcbnew,10.0.0*%
%TF.CreationDate,2026-04-27T20:14:34+08:00*%
%TF.ProjectId,Sqwuak,53717775-616b-42e6-9b69-6361645f7063,rev?*%
%TF.SameCoordinates,Original*%
%TF.FileFunction,Soldermask,Bot*%
%TF.FilePolarity,Negative*%
%FSLAX46Y46*%
G04 Gerber Fmt 4.6, Leading zero omitted, Abs format (unit mm)*
G04 Created by KiCad (PCBNEW 10.0.0) date 2026-04-27 20:14:34*
%MOMM*%
%LPD*%
G01*
G04 APERTURE LIST*
G04 Aperture macros list*
%AMRoundRect*
0 Rectangle with rounded corners*
0 $1 Rounding radius*
0 $2 $3 $4 $5 $6 $7 $8 $9 X,Y pos of 4 corners*
0 Add a 4 corners polygon primitive as box body*
4,1,4,$2,$3,$4,$5,$6,$7,$8,$9,$2,$3,0*
0 Add four circle primitives for the rounded corners*
1,1,$1+$1,$2,$3*
1,1,$1+$1,$4,$5*
1,1,$1+$1,$6,$7*
1,1,$1+$1,$8,$9*
0 Add four rect primitives between the rounded corners*
20,1,$1+$1,$2,$3,$4,$5,0*
20,1,$1+$1,$4,$5,$6,$7,0*
20,1,$1+$1,$6,$7,$8,$9,0*
20,1,$1+$1,$8,$9,$2,$3,0*%
G04 Aperture macros list end*
%ADD10C,1.600000*%
%ADD11C,2.000000*%
%ADD12R,1.800000X1.800000*%
%ADD13C,1.800000*%
%ADD14C,4.400000*%
%ADD15C,3.200000*%
%ADD16R,2.000000X2.000000*%
%ADD17R,3.200000X2.000000*%
%ADD18R,1.600000X1.600000*%
%ADD19O,1.600000X1.600000*%
%ADD20RoundRect,0.102000X0.754000X0.754000X-0.754000X0.754000X-0.754000X-0.754000X0.754000X-0.754000X0*%
%ADD21C,1.712000*%
%ADD22C,3.204000*%
%ADD23R,1.700000X1.700000*%
%ADD24C,1.700000*%
%ADD25RoundRect,0.150000X0.825000X0.150000X-0.825000X0.150000X-0.825000X-0.150000X0.825000X-0.150000X0*%
%ADD26C,1.200000*%
%ADD27O,2.200000X1.200000*%
%ADD28O,2.300000X1.600000*%
%ADD29O,1.200000X2.200000*%
%ADD30O,2.500000X1.600000*%
G04 APERTURE END LIST*
D10*
%TO.C,C10*%
X164750000Y-74750000D03*
X164750000Y-72250000D03*
%TD*%
D11*
%TO.C,SW2*%
X109750000Y-92673000D03*
X116250000Y-92673000D03*
X109750000Y-97173000D03*
X116250000Y-97173000D03*
%TD*%
D12*
%TO.C,D1*%
X146270000Y-62370000D03*
D13*
X143730000Y-62370000D03*
%TD*%
%TO.C,RV1*%
X157800000Y-98500000D03*
X157800000Y-101000000D03*
X157800000Y-103500000D03*
D14*
X150800000Y-105400000D03*
X150800000Y-96600000D03*
%TD*%
D12*
%TO.C,D2*%
X140270000Y-62370000D03*
D13*
X137730000Y-62370000D03*
%TD*%
D10*
%TO.C,R5*%
X180110078Y-130913000D03*
X180110078Y-123293000D03*
%TD*%
%TO.C,C9*%
X186000000Y-112000000D03*
X183500000Y-112000000D03*
%TD*%
D15*
%TO.C,REF\u002A\u002A*%
X104110078Y-65983000D03*
%TD*%
D10*
%TO.C,R1*%
X177810000Y-81500000D03*
X170190000Y-81500000D03*
%TD*%
%TO.C,C11*%
X164750000Y-80500000D03*
X164750000Y-78000000D03*
%TD*%
%TO.C,C5*%
X158610078Y-119983000D03*
X158610078Y-122483000D03*
%TD*%
%TO.C,C7*%
X165750000Y-67750000D03*
X168250000Y-67750000D03*
%TD*%
%TO.C,C1*%
X169250000Y-122750000D03*
X171750000Y-122750000D03*
%TD*%
D15*
%TO.C,REF\u002A\u002A*%
X189610078Y-136483000D03*
%TD*%
D10*
%TO.C,R2*%
X189060000Y-81500000D03*
X181440000Y-81500000D03*
%TD*%
D15*
%TO.C,REF\u002A\u002A*%
X189610078Y-65983000D03*
%TD*%
D10*
%TO.C,R6*%
X184110078Y-123173000D03*
X184110078Y-130793000D03*
%TD*%
D16*
%TO.C,SW4*%
X143500000Y-74500000D03*
D11*
X143500000Y-79500000D03*
X143500000Y-77000000D03*
D17*
X151000000Y-71400000D03*
X151000000Y-82600000D03*
D11*
X158000000Y-79500000D03*
X158000000Y-74500000D03*
%TD*%
D10*
%TO.C,C2*%
X191000000Y-115750000D03*
X191000000Y-113250000D03*
%TD*%
%TO.C,C12*%
X181500000Y-85750000D03*
X181500000Y-88250000D03*
%TD*%
D18*
%TO.C,A1*%
X139170078Y-122243000D03*
D19*
X136630078Y-122243000D03*
X134090078Y-122243000D03*
X131550078Y-122243000D03*
X129010078Y-122243000D03*
X126470078Y-122243000D03*
X123930078Y-122243000D03*
X121390078Y-122243000D03*
X118850078Y-122243000D03*
X116310078Y-122243000D03*
X113770078Y-122243000D03*
X111230078Y-122243000D03*
X108690078Y-122243000D03*
X106150078Y-122243000D03*
X103610078Y-122243000D03*
X103610078Y-137483000D03*
X106150078Y-137483000D03*
X108690078Y-137483000D03*
X111230078Y-137483000D03*
X113770078Y-137483000D03*
X116310078Y-137483000D03*
X118850078Y-137483000D03*
X121390078Y-137483000D03*
X123930078Y-137483000D03*
X126470078Y-137483000D03*
X129010078Y-137483000D03*
X131550078Y-137483000D03*
X134090078Y-137483000D03*
X136630078Y-137483000D03*
X139170078Y-137483000D03*
%TD*%
D10*
%TO.C,C4*%
X173610078Y-112733000D03*
X173610078Y-115233000D03*
%TD*%
%TO.C,C8*%
X176860078Y-109483000D03*
X179360078Y-109483000D03*
%TD*%
%TO.C,C3*%
X191000000Y-122233000D03*
X191000000Y-119733000D03*
%TD*%
D20*
%TO.C,U1*%
X124970078Y-85483000D03*
D21*
X122430078Y-85483000D03*
X119890078Y-85483000D03*
X117350078Y-85483000D03*
D22*
X132160078Y-84983000D03*
X110160078Y-84983000D03*
X110160078Y-62983000D03*
X132160078Y-62983000D03*
%TD*%
D10*
%TO.C,C6*%
X163000000Y-67750000D03*
X160500000Y-67750000D03*
%TD*%
D11*
%TO.C,SW5*%
X126000000Y-92673000D03*
X132500000Y-92673000D03*
X126000000Y-97173000D03*
X132500000Y-97173000D03*
%TD*%
D10*
%TO.C,L1*%
X169190078Y-127483000D03*
X159030078Y-127483000D03*
%TD*%
D23*
%TO.C,LS1*%
X184000000Y-69000000D03*
D24*
X184000000Y-71540000D03*
%TD*%
D23*
%TO.C,AE1*%
X153275000Y-128983000D03*
D24*
X150735000Y-128983000D03*
%TD*%
D10*
%TO.C,R8*%
X141250000Y-107690000D03*
X141250000Y-115310000D03*
%TD*%
D25*
%TO.C,U3*%
X176500000Y-68230000D03*
X176500000Y-69500000D03*
X176500000Y-70770000D03*
X176500000Y-72040000D03*
X176500000Y-73310000D03*
X176500000Y-74580000D03*
X176500000Y-75850000D03*
X176500000Y-77120000D03*
X171550000Y-77120000D03*
X171550000Y-75850000D03*
X171550000Y-74580000D03*
X171550000Y-73310000D03*
X171550000Y-72040000D03*
X171550000Y-70770000D03*
X171550000Y-69500000D03*
X171550000Y-68230000D03*
%TD*%
D23*
%TO.C,SW3*%
X110460000Y-104865000D03*
D24*
X113000000Y-104865000D03*
X115540000Y-104865000D03*
%TD*%
D23*
%TO.C,LS2*%
X103000000Y-78750000D03*
D24*
X103000000Y-81290000D03*
%TD*%
D23*
%TO.C,AE2*%
X175000000Y-128598000D03*
%TD*%
D26*
%TO.C,J1*%
X193610078Y-99483000D03*
X191110078Y-99483000D03*
X186110078Y-104483000D03*
X193610078Y-109483000D03*
X191110078Y-109483000D03*
D27*
X186110078Y-99483000D03*
D28*
X186110078Y-101983000D03*
D29*
X191110078Y-104483000D03*
D27*
X186110078Y-109483000D03*
D30*
X186110078Y-106983000D03*
%TD*%
M02*
