M48
; DRILL file KiCad 10.0.0 date 2026-04-27T20:12:29
; FORMAT={-:-/ absolute / metric / decimal}
; #@! TF.CreationDate,2026-04-27T20:12:29+08:00
; #@! TF.GenerationSoftware,Kicad,Pcbnew,10.0.0
; #@! TF.FileFunction,Plated,1,2,PTH
FMAT,2
METRIC
; #@! TA.AperFunction,Plated,PTH,ViaDrill
T1C0.300
; #@! TA.AperFunction,Plated,PTH,ComponentDrill
T2C0.400
; #@! TA.AperFunction,Plated,PTH,ComponentDrill
T3C0.800
; #@! TA.AperFunction,Plated,PTH,ComponentDrill
T4C0.900
; #@! TA.AperFunction,Plated,PTH,ComponentDrill
T5C1.000
; #@! TA.AperFunction,Plated,PTH,ComponentDrill
T6C1.100
; #@! TA.AperFunction,Plated,PTH,ComponentDrill
T7C1.500
; #@! TA.AperFunction,Plated,PTH,ComponentDrill
T8C2.000
; #@! TA.AperFunction,Plated,PTH,ComponentDrill
T9C2.200
%
G90
G05
T1
X121.684Y-76.684
X122.25Y-77.25
X130.122Y-68.122
X130.688Y-68.688
X154.75Y-108.5
T3
X141.25Y-107.69
X141.25Y-115.31
X158.61Y-119.983
X158.61Y-122.483
X159.03Y-127.483
X160.5Y-67.75
X163.0Y-67.75
X164.75Y-72.25
X164.75Y-74.75
X164.75Y-78.0
X164.75Y-80.5
X165.75Y-67.75
X168.25Y-67.75
X169.19Y-127.483
X169.25Y-122.75
X170.19Y-81.5
X171.75Y-122.75
X173.61Y-112.733
X173.61Y-115.233
X176.86Y-109.483
X177.81Y-81.5
X179.36Y-109.483
X180.11Y-123.293
X180.11Y-130.913
X181.44Y-81.5
X181.5Y-85.75
X181.5Y-88.25
X183.5Y-112.0
X184.11Y-123.173
X184.11Y-130.793
X186.0Y-112.0
X189.06Y-81.5
X191.0Y-113.25
X191.0Y-115.75
X191.0Y-119.733
X191.0Y-122.233
T4
X137.73Y-62.37
X140.27Y-62.37
X143.73Y-62.37
X146.27Y-62.37
T5
X103.0Y-78.75
X103.0Y-81.29
X103.61Y-122.243
X103.61Y-137.483
X106.15Y-122.243
X106.15Y-137.483
X108.69Y-122.243
X108.69Y-137.483
X110.46Y-104.865
X111.23Y-122.243
X111.23Y-137.483
X113.0Y-104.865
X113.77Y-122.243
X113.77Y-137.483
X115.54Y-104.865
X116.31Y-122.243
X116.31Y-137.483
X117.35Y-85.483
X118.85Y-122.243
X118.85Y-137.483
X119.89Y-85.483
X121.39Y-122.243
X121.39Y-137.483
X122.43Y-85.483
X123.93Y-122.243
X123.93Y-137.483
X124.97Y-85.483
X126.47Y-122.243
X126.47Y-137.483
X129.01Y-122.243
X129.01Y-137.483
X131.55Y-122.243
X131.55Y-137.483
X134.09Y-122.243
X134.09Y-137.483
X136.63Y-122.243
X136.63Y-137.483
X139.17Y-122.243
X139.17Y-137.483
X143.5Y-74.5
X143.5Y-77.0
X143.5Y-79.5
X150.735Y-128.983
X153.275Y-128.983
X157.8Y-98.5
X157.8Y-101.0
X157.8Y-103.5
X158.0Y-74.5
X158.0Y-79.5
X175.0Y-128.598
X184.0Y-69.0
X184.0Y-71.54
T6
X109.75Y-92.673
X109.75Y-97.173
X116.25Y-92.673
X116.25Y-97.173
X126.0Y-92.673
X126.0Y-97.173
X132.5Y-92.673
X132.5Y-97.173
T8
X110.16Y-62.983
X110.16Y-84.983
X132.16Y-62.983
X132.16Y-84.983
T9
X150.8Y-96.6
X150.8Y-105.4
T2
G00X186.61Y-99.483
M15
G01X185.61Y-99.483
M16
G05
G00X185.61Y-109.483
M15
G01X186.61Y-109.483
M16
G05
G00X191.11Y-103.983
M15
G01X191.11Y-104.983
M16
G05
T3
G00X186.46Y-101.983
M15
G01X185.76Y-101.983
M16
G05
G00X185.76Y-106.983
M15
G01X186.46Y-106.983
M16
G05
T7
G00X150.35Y-71.4
M15
G01X151.65Y-71.4
M16
G05
G00X150.35Y-82.6
M15
G01X151.65Y-82.6
M16
G05
M30
